<?xml version="1.0" encoding="utf-8"?>
<!-- Generator: Adobe Illustrator 16.0.0, SVG Export Plug-In . SVG Version: 6.00 Build 0)  -->
<!DOCTYPE svg PUBLIC "-//W3C//DTD SVG 1.1//EN" "http://www.w3.org/Graphics/SVG/1.1/DTD/svg11.dtd">
<svg version="1.1" id="Layer_1" xmlns="http://www.w3.org/2000/svg" xmlns:xlink="http://www.w3.org/1999/xlink" x="0px" y="0px"
	 width="50px" height="50px" viewBox="0 0 50 50" enable-background="new 0 0 50 50" xml:space="preserve">
<g transform="translate(240 96)">
	<g id="icon-sass">
		<path d="M-220.7-88.9c-4,0.9-7.7,2.6-11.2,4.8c-3.2,2-7.5,5.5-7.5,9.6c0,0.4,0.1,0.9,0.3,1.6c0.2,0.8,0.7,1.4,1.2,2
			c0.9,1.3,2.2,2.1,3.2,3.2c1,1.1,2.5,1.8,3.6,2.6c0.4,0.3,1.6,0.8,0.8,1.2c-0.9,0.4-1.8,1-2.7,1.5c-2.1,1.4-4.4,3-4.7,5.7
			c-0.2,1.8,0.6,3.9,2.6,3.9c1.9,0.1,4,0,5.5-1.3c1.6-1.4,2.8-2.9,3.2-5.1c0.2-1.1,0.2-2.2,0-3.3c-0.1-0.4-0.4-0.9-0.4-1.3
			c0-0.2,1.1-0.7,1.3-0.9c0.1-0.1,0.9-0.6,0.9-0.4c0,0.3-0.2,0.7-0.2,1.1c-0.1,1-0.3,1.9-0.2,2.9c0.1,1,0.3,1.8,0.8,2.7
			c0.5,1.1,1.2,1.3,2.3,1.2c1.3-0.2,2-2.5,2.5-3.5c0-0.1,0.1-0.2,0.1-0.3c0,0.4,0,0.9,0,1.3c0,0.4,0,0.7,0.1,1.1
			c0,0.2,0.3,0.3,0.3,0.4c0,0.7,1.3,0.4,1.6,0.2c0.8-0.5,1.3-1.3,1.7-2.1c1.4-2.6,2.7-5.2,3.8-8c0.2,1.1,0.6,2.1,1.1,3.2
			c0.4,0.8-0.1,1.2-0.7,1.9c-0.3,0.3-0.6,0.8-0.9,1.1c-0.6,0.5-1.9,1.9-1.7,2.8c0.2,0.8,1.4,0.7,2,0.6c1.2-0.2,2.4-0.7,3.4-1.5
			c0.5-0.4,0.9-1.1,1-1.8c0-0.6,0-1.2,0-1.8c0-0.5-0.3-0.9-0.4-1.3c0-0.2,0.4-0.7,0.5-0.9c0.2-0.3,0.4-0.6,0.6-1
			c0.2-0.3,1.4-2.6,1.6-2.5c0.3,0.2,0.3,1,0.5,1.4c0.2,0.5,0.4,1.1,0.7,1.5c0.3,0.5-1.3,1.7-1.6,2.1c-0.8,1.1-2.1,4.4,0.4,4.2
			c1.9-0.2,4.3-2,4.4-4.1c0-0.6-0.2-1.1-0.3-1.6c-0.1-0.3,0.6-0.5,0.9-0.5c0.8-0.3,1.8-0.2,2.7-0.2c2,0,4.1,0.5,5.3,2.4
			c0.6,1,0.5,2.3-0.3,3.1c-0.2,0.2-1.1,0.7-1,1.1c0.2,0.4,1.3-0.2,1.4-0.3c1.8-1.2,1.8-3.9,0.5-5.5c-1.6-2-4.2-2.8-6.7-2.6
			c-1.1,0.1-2,0.3-3,0.7c-0.9,0.4-1.4-1.1-1.5-1.9c-0.1-0.8-0.2-1.9,0.1-2.8c0.2-0.8,0.8-1.7-0.4-1.8c-0.6,0-1.9-0.2-2.3,0.3
			c-0.5,0.5-0.4,1.6-0.7,2.2c-0.7,1.7-1.7,3.3-2.6,4.9c-0.3-0.7-0.6-1.5-0.7-2.3c-0.1-1,0.2-1.9,0.5-2.8c0.1-0.3,0.2-0.4,0-0.7
			c-0.3-0.2-0.5-0.3-0.8-0.3c-0.9,0-2-0.1-2.3,0.8c-0.7,2.1-1.6,4.2-2.6,6.2c-0.7,1.5-1.3,3.2-2.2,4.6c0.1-1.3,0.3-2.5,0.7-3.7
			c0.2-0.8,0.6-1.7,0.6-2.6c0-0.8-1.1-0.7-1.6-0.7c0-1.7-0.3-3.1-2.3-2.7c-1.1,0.2-1.9,0.9-2.7,1.7c-1,1-2.1,1.7-3.4,2.4
			c-0.6,0.3-1.2,0.7-1.8,1c-0.5,0.3-0.6,0.2-1-0.2c-0.6-0.6-1.2-1.1-1.8-1.6c-1.6-1.3-3.5-2.5-4.5-4.2c-2-3.4,0.9-7,3.6-8.9
			c3.4-2.4,7-4.3,11.1-5.3c1.7-0.4,3.8-0.4,5.5-0.2c1.3,0.2,3.1,1.2,3.1,2.6c0.2,4.7-5.1,8-9.2,8.8c-2,0.4-4,0.7-5.9-0.3
			c-0.4-0.2-1.9-1.7-1.6-0.3c0.3,1.2,1.6,1.9,2.6,2.3c2,0.8,4.6,0.5,6.7,0c1.6-0.3,3.2-0.9,4.6-1.7c1.7-1.1,3.3-2.6,4.4-4.4
			c1.2-2,2-5.1,0.5-7.2c-1.2-1.7-3.2-2.7-5.2-3C-216.4-89.3-218.9-89.4-220.7-88.9z M-218.7-68.1c-0.1,1.6-0.9,3.2-1.5,4.6
			c-0.3,0.8-0.6,1.6-1,2.4c-0.4,0.8-0.9,1-1.1,0c-0.4-1.8,0.3-3.9,1.2-5.5c0.4-0.7,0.8-1.3,1.4-1.8C-219.2-68.6-218.7-69-218.7-68.1
			z M-203-64c-0.1,1.2-0.8,1.8-1.8,2.3c0.1-0.8,0.5-1.5,0.9-2.1C-203.5-64.5-202.9-65.3-203-64z M-228.5-62.6
			c0.4,2.2-0.5,4.3-2.1,5.7c-1,0.9-4.2,2.4-4-0.1c0.1-1.1,0.7-2,1.4-2.8c0.3-0.3,1.1-1.3,1.7-1.4c0.2,0,0.2-0.3,0.4-0.3
			c0.4,0,1-0.6,1.3-0.8C-229.5-62.4-228.5-63.4-228.5-62.6z"/>
	</g>
</g>
</svg>
