<?xml version="1.0" encoding="utf-8"?>
<!-- Generator: Adobe Illustrator 17.0.0, SVG Export Plug-In . SVG Version: 6.00 Build 0)  -->
<!DOCTYPE svg PUBLIC "-//W3C//DTD SVG 1.1//EN" "http://www.w3.org/Graphics/SVG/1.1/DTD/svg11.dtd">
<svg version="1.1" id="Layer_1" xmlns="http://www.w3.org/2000/svg" xmlns:xlink="http://www.w3.org/1999/xlink" x="0px" y="0px"
	 width="432.72px" height="140px" viewBox="0 0 432.72 140" enable-background="new 0 0 432.72 140" xml:space="preserve">
<g>
	<path fill="#0076BE" d="M261.194,44.124c-9.279,0-16.856,7.818-16.856,17.408c0,9.583,7.576,17.403,16.856,17.403
		c9.284,0,16.856-7.819,16.856-17.403C278.05,51.942,270.478,44.124,261.194,44.124 M261.194,70.356
		c-4.708,0-8.549-3.963-8.549-8.825c0-4.867,3.841-8.825,8.549-8.825c4.712,0,8.554,3.957,8.554,8.825
		C269.748,66.393,265.907,70.356,261.194,70.356"/>
	<polygon fill="#0076BE" points="32.408,72.024 32.408,62.039 19.505,62.039 19.505,72.024 17.763,72.024 17.763,51.003 
		19.505,51.003 19.505,60.399 32.408,60.399 32.408,51.003 34.15,51.003 34.15,72.024 	"/>
	<path fill="#0076BE" d="M77.01,72.397c-1.505,0-2.879-0.271-4.117-0.818c-1.248-0.547-2.308-1.312-3.193-2.284
		c-0.881-0.977-1.567-2.123-2.056-3.454c-0.488-1.316-0.735-2.758-0.735-4.311c0-1.558,0.247-2.995,0.735-4.321
		c0.489-1.321,1.176-2.467,2.056-3.449c0.885-0.977,1.945-1.737,3.193-2.279c1.238-0.547,2.612-0.818,4.117-0.818
		c1.504,0,2.874,0.271,4.122,0.818c1.234,0.542,2.298,1.301,3.179,2.279c0.885,0.982,1.572,2.129,2.066,3.449
		c0.484,1.326,0.73,2.763,0.73,4.321c0,1.553-0.247,2.995-0.73,4.311c-0.494,1.33-1.181,2.477-2.066,3.454
		c-0.881,0.972-1.945,1.737-3.179,2.284C79.884,72.126,78.514,72.397,77.01,72.397 M77.01,70.065c1.137,0,2.163-0.213,3.077-0.644
		c0.915-0.435,1.698-1.035,2.352-1.799c0.653-0.765,1.151-1.665,1.509-2.705c0.358-1.045,0.532-2.172,0.532-3.386
		c0-1.22-0.174-2.347-0.532-3.406c-0.358-1.045-0.856-1.95-1.509-2.714c-0.653-0.755-1.437-1.34-2.352-1.766
		c-0.914-0.435-1.94-0.648-3.077-0.648c-1.137,0-2.172,0.213-3.096,0.648c-0.929,0.426-1.718,1.011-2.366,1.766
		c-0.653,0.764-1.151,1.669-1.495,2.714c-0.343,1.059-0.518,2.187-0.518,3.406c0,1.214,0.174,2.341,0.518,3.386
		c0.344,1.04,0.842,1.94,1.495,2.705c0.648,0.765,1.437,1.365,2.366,1.799C74.838,69.852,75.873,70.065,77.01,70.065"/>
	<path fill="#0076BE" d="M131.157,72.024l-4.519-7.847h-3.536v7.847h-3.561V51.003h8.926c1.002,0,1.911,0.169,2.734,0.489
		c0.823,0.329,1.529,0.784,2.109,1.355c0.576,0.585,1.021,1.272,1.34,2.08c0.314,0.808,0.474,1.698,0.474,2.666
		c0,0.943-0.14,1.77-0.411,2.486c-0.276,0.716-0.644,1.326-1.084,1.843c-0.45,0.513-0.963,0.924-1.543,1.229
		c-0.576,0.309-1.176,0.513-1.78,0.614l4.968,8.258H131.157z M127.984,60.931c1.016,0,1.853-0.305,2.501-0.914
		c0.653-0.61,0.977-1.417,0.977-2.424c0-1.011-0.324-1.819-0.977-2.424c-0.648-0.614-1.485-0.914-2.501-0.914h-4.882v6.676H127.984z
		"/>
	<rect x="167.215" y="51.003" fill="#0076BE" width="4.335" height="21.016"/>
	<polygon fill="#0076BE" points="203.336,72.024 203.336,66.979 211.082,56.557 203.336,56.557 203.336,51.003 219.229,51.003 
		219.229,56.016 211.445,66.475 219.442,66.475 219.442,72.024 	"/>
	<polygon fill="#0076BE" points="316.266,72.538 308.762,61.884 308.762,72.538 302.603,72.538 302.603,51.521 308.945,51.521 
		316.024,61.473 316.024,51.521 322.188,51.521 322.188,72.538 	"/>
	<polygon fill="#0076BE" points="359.527,72.538 359.527,54.767 353.359,54.767 353.359,51.521 369.262,51.521 369.262,54.767 
		363.093,54.767 363.093,72.538 	"/>
	<polygon fill="#0076BE" points="401.439,72.538 401.439,50.52 414.957,50.52 414.957,52.232 403.259,52.232 403.259,60.394 
		414.73,60.394 414.73,62.107 403.259,62.107 403.259,70.82 414.957,70.82 414.957,72.538 	"/>
	<path fill="#0076BE" d="M370.341,95.876c-41.53-7.475-88.624-11.689-138.552-11.689c-49.923,0-97.027,4.215-138.552,11.689
		c43.426-3.73,90.036-5.763,138.552-5.763C280.304,90.114,326.91,92.147,370.341,95.876"/>
</g>
</svg>
