<?xml version="1.0" encoding="utf-8"?>
<!-- Generator: Adobe Illustrator 16.0.0, SVG Export Plug-In . SVG Version: 6.00 Build 0)  -->
<!DOCTYPE svg PUBLIC "-//W3C//DTD SVG 1.1//EN" "http://www.w3.org/Graphics/SVG/1.1/DTD/svg11.dtd">
<svg version="1.1" id="Layer_1" xmlns="http://www.w3.org/2000/svg" xmlns:xlink="http://www.w3.org/1999/xlink" x="0px" y="0px"
	 width="144px" height="90px" viewBox="0 0 144 90" enable-background="new 0 0 144 90" xml:space="preserve">
<path fill="#212229" d="M74.556,7.945c-4.48-0.019-8.298-0.922-8.917-3.144c-0.784,2.222-4.499,3.125-8.977,3.144
	c0,0-1.641,11.028,1.403,15.225c2.502,3.451,7.574,5.177,7.574,5.177s5.04-1.726,7.544-5.177
	C76.225,18.973,74.556,7.945,74.556,7.945z"/>
<path fill="#FCFCFC" d="M62.349,13.982c-0.204-0.203-0.532-0.203-0.734,0l-2.163,2.163c-0.203,0.203-0.203,0.531,0,0.734
	l2.163,2.164c0.102,0.102,0.234,0.152,0.367,0.152s0.265-0.05,0.367-0.152c0.203-0.203,0.203-0.532,0-0.734l-1.796-1.796
	l1.796-1.797C62.551,14.513,62.551,14.185,62.349,13.982z"/>
<path fill="#FCFCFC" d="M68.876,19.043c0.102,0.102,0.234,0.152,0.367,0.152s0.265-0.05,0.367-0.152l2.163-2.164
	c0.203-0.203,0.203-0.53,0-0.734l-2.163-2.163c-0.203-0.203-0.531-0.203-0.734,0c-0.202,0.203-0.202,0.531,0,0.733l1.798,1.797
	l-1.798,1.796C68.674,18.511,68.674,18.84,68.876,19.043z"/>
<path fill="#FCFCFC" d="M63.792,20.151c0.075,0.037,0.154,0.055,0.232,0.055c0.19,0,0.373-0.105,0.465-0.286l3.113-6.228
	c0.128-0.256,0.024-0.568-0.231-0.696c-0.257-0.128-0.568-0.025-0.697,0.231l-3.113,6.228
	C63.432,19.712,63.536,20.023,63.792,20.151z"/>
<rect x="1" y="21" fill="#212229" width="52" height="1"/>
<rect x="77" y="21" fill="#212229" width="47" height="1"/>
<rect x="1" y="24" fill="#212229" width="52" height="1"/>
<rect x="77" y="24" fill="#212229" width="47" height="1"/>
<g>
	<path fill="#212229" d="M12.729,52.476c0,1.283-0.565,2.38-1.695,3.29s-2.493,1.365-4.091,1.365H1.158V37.673h5.786
		c1.61,0,2.977,0.455,4.101,1.365c1.123,0.911,1.685,2.002,1.685,3.274V52.476z M4.839,54.229h2.221c0.584,0,1.078-0.168,1.48-0.505
		c0.402-0.336,0.604-0.731,0.604-1.187V42.359c0-0.466-0.205-0.864-0.613-1.195c-0.409-0.331-0.899-0.497-1.471-0.497H4.839V54.229z
		"/>
	<path fill="#212229" d="M18.893,52.662l-0.895,4.469h-3.833l4.15-19.442h5.064l4.09,19.442h-3.871l-0.861-4.469H18.893z
		 M20.826,42.142l-1.363,7.665h2.727L20.826,42.142z"/>
	<path fill="#212229" d="M33.602,37.673l4.886,13.077V37.673h3.682v19.458h-3.955L33.15,44.671v12.459h-3.682V37.673H33.602z"/>
	<path fill="#212229" d="M48.046,57.131h-3.682V37.689h3.682V57.131z"/>
	<path fill="#212229" d="M50.241,57.131V37.673h10.48v2.948h-6.799v5.307h4.968v2.948h-4.968v5.307h6.799v2.948H50.241z"/>
	<path fill="#212229" d="M72.189,57.131H62.156V37.689h3.682v16.525h6.352V57.131z"/>
	<path fill="#212229" d="M75.059,57.131V37.673h5.513c1.454,0,2.766,0.305,3.935,0.916c1,0.517,1.715,1.319,2.143,2.405
		C86.883,41.573,87,42.261,87,43.058c0,1.303-0.436,2.348-1.306,3.134c-0.363,0.332-0.792,0.585-1.286,0.761
		c0.818,0.248,1.514,0.739,2.085,1.474c0.376,0.497,0.655,1.139,0.838,1.925c0.091,0.403,0.136,0.853,0.136,1.35
		c0,1.231-0.292,2.275-0.876,3.134c-0.455,0.673-1.098,1.211-1.929,1.614c-0.936,0.455-1.864,0.683-2.786,0.683H75.059z
		 M79.032,45.618h1.539c1.143,0,1.909-0.445,2.299-1.334c0.143-0.331,0.214-0.739,0.214-1.226c0-0.807-0.247-1.417-0.74-1.831
		c-0.455-0.383-1.046-0.574-1.772-0.574h-1.539V45.618z M79.032,54.229h1.539c1.246,0,2.11-0.513,2.591-1.536
		c0.169-0.352,0.253-0.755,0.253-1.211c0-1.086-0.26-1.877-0.779-2.374c-0.467-0.455-1.156-0.683-2.064-0.683h-1.539V54.229z"/>
	<path fill="#212229" d="M89.546,57.131V37.673h10.479v2.948h-6.798v5.307h4.967v2.948h-4.967v5.307h6.798v2.948H89.546z"/>
	<path fill="#212229" d="M105.143,57.131h-3.682V37.673h10.479v2.948h-6.798v5.307h4.967v2.948h-4.967V57.131z"/>
	<path fill="#212229" d="M117.059,57.131h-3.682V37.673h10.479v2.948h-6.798v5.307h4.967v2.948h-4.967V57.131z"/>
</g>
<g>
	<path fill="#212229" d="M29.082,70.526c0-0.188-0.013-0.325-0.039-0.41s-0.039-0.163-0.039-0.234c0-0.098,0.05-0.178,0.151-0.239
		s0.223-0.093,0.366-0.093c0.332,0,0.596,0.086,0.791,0.259s0.293,0.379,0.293,0.62v4.58c0.006,0.208,0.024,0.4,0.054,0.576
		s0.08,0.325,0.151,0.449s0.169,0.22,0.293,0.288s0.283,0.103,0.479,0.103c0.189,0,0.347-0.037,0.474-0.112s0.229-0.178,0.308-0.308
		s0.133-0.281,0.166-0.454s0.049-0.354,0.049-0.542v-4.482c0-0.188-0.013-0.325-0.039-0.41S32.5,69.953,32.5,69.882
		c0-0.098,0.052-0.178,0.156-0.239s0.228-0.093,0.371-0.093c0.332,0,0.594,0.086,0.786,0.259s0.288,0.379,0.288,0.62v4.58
		c0,0.312-0.031,0.63-0.093,0.952s-0.181,0.615-0.356,0.879s-0.423,0.48-0.742,0.649s-0.736,0.254-1.25,0.254
		c-0.215,0-0.417-0.026-0.605-0.078s-0.361-0.122-0.518-0.21s-0.293-0.188-0.41-0.303s-0.211-0.236-0.283-0.366
		c-0.065,0.13-0.161,0.252-0.288,0.366s-0.272,0.215-0.435,0.303s-0.338,0.158-0.527,0.21s-0.377,0.078-0.566,0.078
		c-0.371,0-0.688-0.042-0.952-0.127s-0.487-0.2-0.669-0.347s-0.327-0.314-0.435-0.503s-0.19-0.384-0.249-0.586
		s-0.096-0.407-0.112-0.615s-0.024-0.4-0.024-0.576v-4.463c0-0.188-0.015-0.325-0.044-0.41s-0.044-0.163-0.044-0.234
		c0-0.098,0.052-0.178,0.156-0.239s0.228-0.093,0.371-0.093c0.332,0,0.594,0.086,0.786,0.259s0.288,0.379,0.288,0.62v4.58
		c0,0.176,0.011,0.35,0.034,0.522s0.068,0.324,0.137,0.454s0.167,0.236,0.298,0.317s0.303,0.122,0.518,0.122
		c0.189,0,0.347-0.037,0.474-0.112s0.229-0.178,0.308-0.308s0.133-0.281,0.166-0.454s0.049-0.354,0.049-0.542V70.526z"/>
	<path fill="#212229" d="M40.146,71.366c0,0.371-0.063,0.752-0.19,1.143s-0.316,0.76-0.566,1.108s-0.56,0.661-0.928,0.938
		s-0.792,0.486-1.274,0.63c0.065,0.169,0.151,0.33,0.259,0.483s0.236,0.285,0.386,0.396s0.324,0.198,0.522,0.264
		s0.428,0.098,0.688,0.098c0.391,0,0.726-0.073,1.006-0.22s0.516-0.34,0.708-0.581s0.347-0.511,0.464-0.811s0.205-0.603,0.264-0.908
		c0.045-0.222,0.138-0.369,0.278-0.444s0.283-0.093,0.43-0.054s0.273,0.122,0.381,0.249s0.151,0.278,0.132,0.454
		c-0.026,0.202-0.07,0.433-0.132,0.693s-0.155,0.524-0.278,0.791s-0.282,0.529-0.474,0.786s-0.428,0.486-0.708,0.688
		s-0.609,0.364-0.986,0.488s-0.811,0.186-1.299,0.186c-0.456,0-0.897-0.09-1.323-0.269s-0.804-0.437-1.133-0.771
		s-0.592-0.749-0.791-1.24s-0.298-1.05-0.298-1.675c0-0.632,0.088-1.219,0.264-1.763s0.407-1.014,0.693-1.411
		s0.612-0.708,0.977-0.933s0.739-0.337,1.123-0.337c0.28,0,0.532,0.049,0.757,0.146s0.415,0.236,0.571,0.415s0.275,0.393,0.356,0.64
		S40.146,71.066,40.146,71.366z M36.923,73.729c0,0.059,0.003,0.117,0.01,0.176s0.01,0.12,0.01,0.186
		c0.248-0.117,0.472-0.267,0.674-0.449s0.375-0.391,0.518-0.625s0.254-0.49,0.332-0.767s0.117-0.564,0.117-0.864
		c0-0.222-0.038-0.394-0.112-0.518s-0.177-0.186-0.308-0.186c-0.163,0-0.308,0.056-0.435,0.166s-0.238,0.256-0.332,0.435
		s-0.172,0.381-0.234,0.605s-0.112,0.451-0.151,0.679s-0.065,0.444-0.078,0.649S36.917,73.593,36.923,73.729z"/>
	<path fill="#212229" d="M43.662,72.089c0-0.403,0.044-0.754,0.132-1.05s0.21-0.54,0.366-0.732s0.337-0.334,0.542-0.425
		s0.425-0.137,0.659-0.137c0.267,0,0.527,0.065,0.781,0.195s0.48,0.329,0.679,0.596s0.358,0.605,0.479,1.016
		s0.181,0.896,0.181,1.455c0,0.391-0.024,0.779-0.073,1.167s-0.125,0.757-0.229,1.108c0.072,0.026,0.142,0.041,0.21,0.044
		s0.138,0.005,0.21,0.005c0.215,0,0.405-0.039,0.571-0.117s0.309-0.183,0.43-0.312s0.216-0.283,0.288-0.459s0.124-0.361,0.156-0.557
		c0.013-0.078,0.057-0.144,0.132-0.195s0.161-0.088,0.259-0.107s0.2-0.02,0.308,0s0.2,0.063,0.278,0.132s0.135,0.163,0.171,0.283
		s0.034,0.275-0.005,0.464c-0.059,0.273-0.155,0.529-0.288,0.767s-0.301,0.447-0.503,0.63s-0.439,0.325-0.713,0.43
		s-0.58,0.156-0.918,0.156c-0.182,0-0.358-0.01-0.527-0.029s-0.335-0.056-0.498-0.107c-0.248,0.43-0.57,0.776-0.967,1.04
		s-0.889,0.396-1.475,0.396c-0.462,0-0.868-0.081-1.216-0.244s-0.641-0.393-0.879-0.688s-0.417-0.649-0.537-1.06
		s-0.181-0.859-0.181-1.348v-9.541c0-0.144-0.011-0.257-0.034-0.342s-0.045-0.151-0.068-0.2s-0.045-0.088-0.068-0.117
		s-0.034-0.061-0.034-0.093c0-0.039,0.02-0.071,0.059-0.098s0.091-0.049,0.156-0.068s0.135-0.034,0.21-0.044s0.148-0.015,0.22-0.015
		c0.332,0,0.594,0.086,0.786,0.259s0.288,0.379,0.288,0.62v9.365c0,0.332,0.029,0.638,0.088,0.918s0.146,0.522,0.264,0.728
		s0.265,0.364,0.444,0.479s0.389,0.171,0.63,0.171c0.248,0,0.459-0.063,0.635-0.19s0.322-0.298,0.439-0.513
		c-0.287-0.202-0.542-0.438-0.767-0.708s-0.417-0.563-0.576-0.879s-0.282-0.647-0.366-0.996S43.662,72.44,43.662,72.089z
		 M44.902,72.011c0,0.481,0.086,0.938,0.259,1.367s0.405,0.801,0.698,1.113c0.039-0.234,0.065-0.467,0.078-0.698
		s0.02-0.441,0.02-0.63c0-0.671-0.07-1.188-0.21-1.553s-0.301-0.547-0.483-0.547c-0.13,0-0.223,0.086-0.278,0.259
		S44.902,71.725,44.902,72.011z"/>
	<path fill="#212229" d="M51.279,77.743c-0.391,0-0.746-0.068-1.064-0.205s-0.591-0.34-0.815-0.61s-0.397-0.605-0.518-1.006
		s-0.181-0.864-0.181-1.392c0-0.769,0.107-1.453,0.322-2.056s0.508-1.12,0.879-1.553s0.801-0.778,1.289-1.035
		s1.006-0.425,1.553-0.503v-4.521c0-0.144-0.011-0.257-0.034-0.342s-0.045-0.151-0.068-0.2s-0.045-0.088-0.068-0.117
		s-0.034-0.061-0.034-0.093c0-0.039,0.02-0.071,0.059-0.098s0.091-0.049,0.156-0.068s0.135-0.034,0.21-0.044s0.148-0.015,0.22-0.015
		c0.332,0,0.594,0.086,0.786,0.259s0.288,0.379,0.288,0.62v10.742c0,0.11,0.013,0.22,0.039,0.327s0.067,0.205,0.122,0.293
		s0.127,0.159,0.215,0.215s0.19,0.083,0.308,0.083c0.202,0,0.376-0.071,0.522-0.215s0.273-0.322,0.381-0.537
		s0.195-0.447,0.264-0.698s0.125-0.486,0.171-0.708c0.039-0.208,0.104-0.359,0.195-0.454s0.186-0.142,0.283-0.142
		c0.078,0,0.16,0.024,0.244,0.073s0.161,0.112,0.229,0.19s0.124,0.166,0.166,0.264s0.063,0.195,0.063,0.293c0,0.013,0,0.029,0,0.049
		s-0.006,0.049-0.02,0.088c-0.084,0.332-0.2,0.681-0.347,1.045s-0.335,0.7-0.566,1.006s-0.506,0.56-0.825,0.762
		s-0.693,0.303-1.123,0.303c-0.345,0-0.648-0.071-0.908-0.215s-0.465-0.332-0.615-0.566c-0.221,0.228-0.477,0.415-0.767,0.562
		S51.663,77.743,51.279,77.743z M51.582,76.425c0.26,0,0.487-0.075,0.679-0.225s0.353-0.335,0.483-0.557v-4.941
		c-0.326,0.059-0.64,0.168-0.942,0.327s-0.57,0.383-0.801,0.669s-0.415,0.649-0.552,1.089s-0.205,0.972-0.205,1.597
		c0,0.364,0.038,0.676,0.112,0.933s0.172,0.467,0.293,0.63s0.262,0.283,0.425,0.361S51.406,76.425,51.582,76.425z"/>
	<path fill="#212229" d="M60.967,71.366c0,0.371-0.064,0.752-0.191,1.143s-0.315,0.76-0.566,1.108
		c-0.25,0.349-0.56,0.661-0.927,0.938s-0.792,0.486-1.274,0.63c0.065,0.169,0.151,0.33,0.259,0.483s0.236,0.285,0.386,0.396
		s0.324,0.198,0.522,0.264s0.428,0.098,0.688,0.098c0.391,0,0.726-0.073,1.006-0.22c0.279-0.146,0.516-0.34,0.707-0.581
		c0.193-0.241,0.348-0.511,0.465-0.811s0.205-0.603,0.264-0.908c0.045-0.222,0.139-0.369,0.277-0.444
		c0.141-0.075,0.283-0.093,0.43-0.054s0.273,0.122,0.381,0.249s0.152,0.278,0.133,0.454c-0.027,0.202-0.07,0.433-0.133,0.693
		c-0.061,0.261-0.154,0.524-0.277,0.791c-0.125,0.267-0.281,0.529-0.475,0.786c-0.191,0.257-0.428,0.486-0.707,0.688
		c-0.281,0.202-0.609,0.364-0.986,0.488c-0.378,0.124-0.811,0.186-1.299,0.186c-0.456,0-0.897-0.09-1.323-0.269
		s-0.804-0.437-1.133-0.771s-0.592-0.749-0.791-1.24s-0.298-1.05-0.298-1.675c0-0.632,0.088-1.219,0.264-1.763
		s0.407-1.014,0.693-1.411s0.612-0.708,0.977-0.933s0.739-0.337,1.123-0.337c0.28,0,0.532,0.049,0.757,0.146
		c0.224,0.098,0.416,0.236,0.572,0.415s0.275,0.393,0.355,0.64C60.926,70.793,60.967,71.066,60.967,71.366z M57.744,73.729
		c0,0.059,0.003,0.117,0.01,0.176s0.01,0.12,0.01,0.186c0.248-0.117,0.472-0.267,0.674-0.449s0.375-0.391,0.518-0.625
		s0.254-0.49,0.332-0.767s0.117-0.564,0.117-0.864c0-0.222-0.038-0.394-0.112-0.518s-0.177-0.186-0.308-0.186
		c-0.163,0-0.308,0.056-0.435,0.166s-0.238,0.256-0.332,0.435s-0.172,0.381-0.234,0.605s-0.112,0.451-0.151,0.679
		s-0.065,0.444-0.078,0.649S57.737,73.593,57.744,73.729z"/>
	<path fill="#212229" d="M63.438,74.442c-0.052,0.208-0.149,0.337-0.293,0.386s-0.285,0.044-0.425-0.015s-0.257-0.159-0.352-0.303
		s-0.122-0.3-0.083-0.469c0.098-0.442,0.239-0.933,0.425-1.47s0.369-1.072,0.552-1.606c-0.098-0.149-0.176-0.301-0.234-0.454
		s-0.088-0.314-0.088-0.483s0.063-0.347,0.19-0.532s0.28-0.356,0.459-0.513s0.364-0.285,0.557-0.386s0.356-0.151,0.493-0.151
		c0.241,0,0.422,0.081,0.542,0.244s0.181,0.381,0.181,0.654c0,0.149-0.024,0.298-0.073,0.444s-0.103,0.283-0.161,0.41
		s-0.112,0.236-0.161,0.327s-0.076,0.149-0.083,0.176c0.234,0.417,0.479,0.784,0.732,1.104s0.486,0.635,0.698,0.947
		s0.386,0.645,0.522,0.996s0.205,0.765,0.205,1.24c0,0.117-0.008,0.237-0.024,0.361s-0.041,0.241-0.073,0.352
		c0.234-0.046,0.441-0.117,0.62-0.215s0.335-0.21,0.469-0.337s0.244-0.266,0.332-0.415s0.161-0.306,0.22-0.469
		c0.071-0.188,0.144-0.325,0.215-0.41s0.153-0.127,0.244-0.127c0.085,0,0.171,0.027,0.259,0.083s0.166,0.125,0.234,0.21
		s0.124,0.173,0.166,0.264s0.063,0.173,0.063,0.244c0,0.098-0.026,0.215-0.078,0.352s-0.122,0.276-0.21,0.42
		s-0.188,0.281-0.298,0.415s-0.225,0.249-0.342,0.347c-0.312,0.254-0.681,0.467-1.104,0.64s-0.947,0.281-1.572,0.327
		c-0.241,0.208-0.525,0.379-0.854,0.513s-0.698,0.2-1.108,0.2c-0.208,0-0.422-0.026-0.64-0.078s-0.427-0.119-0.625-0.2
		s-0.379-0.171-0.542-0.269s-0.293-0.195-0.391-0.293c-0.247-0.234-0.407-0.471-0.479-0.708s-0.09-0.451-0.054-0.64
		s0.105-0.344,0.21-0.464s0.212-0.181,0.322-0.181c0.065,0,0.168,0.027,0.308,0.083s0.301,0.127,0.483,0.215
		s0.381,0.181,0.596,0.278s0.43,0.19,0.645,0.278s0.425,0.159,0.63,0.215s0.393,0.083,0.562,0.083
		c0.11-0.13,0.212-0.303,0.303-0.518s0.137-0.449,0.137-0.703c0-0.312-0.042-0.603-0.127-0.869s-0.195-0.515-0.332-0.742
		s-0.291-0.441-0.464-0.64s-0.347-0.386-0.522-0.562c-0.156,0.384-0.293,0.764-0.41,1.138S63.567,73.967,63.438,74.442z"/>
	<path fill="#212229" d="M69.736,67.567c-0.163,0-0.317-0.032-0.464-0.098s-0.273-0.153-0.381-0.264s-0.193-0.239-0.259-0.386
		s-0.098-0.305-0.098-0.474c0-0.176,0.032-0.339,0.098-0.488s0.151-0.278,0.259-0.386s0.234-0.192,0.381-0.254
		s0.301-0.093,0.464-0.093c0.176,0,0.339,0.031,0.488,0.093s0.278,0.146,0.386,0.254s0.192,0.236,0.254,0.386
		s0.093,0.312,0.093,0.488c0,0.169-0.031,0.327-0.093,0.474s-0.146,0.275-0.254,0.386s-0.236,0.198-0.386,0.264
		S69.912,67.567,69.736,67.567z M70.195,75.507c0,0.046,0.003,0.119,0.01,0.22s0.026,0.203,0.059,0.308s0.085,0.195,0.156,0.273
		s0.173,0.117,0.303,0.117c0.195,0,0.366-0.071,0.513-0.215s0.273-0.322,0.381-0.537s0.197-0.447,0.269-0.698
		s0.13-0.486,0.176-0.708c0.039-0.202,0.1-0.349,0.181-0.439s0.169-0.142,0.264-0.151s0.188,0.015,0.283,0.073
		s0.179,0.135,0.254,0.229s0.13,0.2,0.166,0.317s0.041,0.228,0.015,0.332c-0.091,0.332-0.21,0.681-0.356,1.045
		s-0.334,0.7-0.562,1.006s-0.501,0.56-0.82,0.762s-0.693,0.303-1.123,0.303c-0.267,0-0.505-0.051-0.713-0.151
		s-0.384-0.236-0.527-0.405s-0.252-0.368-0.327-0.596s-0.112-0.469-0.112-0.723v-5.342c0-0.188-0.015-0.325-0.044-0.41
		s-0.044-0.163-0.044-0.234c0-0.098,0.052-0.178,0.156-0.239s0.228-0.093,0.371-0.093c0.332,0,0.594,0.086,0.786,0.259
		s0.288,0.379,0.288,0.62V75.507z"/>
	<path fill="#212229" d="M73.34,83.124c0-0.508,0.066-0.957,0.2-1.348s0.314-0.749,0.542-1.074s0.491-0.63,0.791-0.913
		s0.615-0.571,0.947-0.864v-2.1c-0.202,0.202-0.438,0.373-0.708,0.513s-0.581,0.21-0.933,0.21c-0.391,0-0.734-0.078-1.03-0.234
		s-0.545-0.369-0.747-0.64s-0.354-0.589-0.454-0.957s-0.151-0.764-0.151-1.187c0-0.833,0.134-1.582,0.4-2.246
		s0.622-1.229,1.064-1.694s0.949-0.822,1.519-1.069s1.16-0.371,1.772-0.371c0.273,0,0.495,0.073,0.664,0.22s0.254,0.354,0.254,0.62
		c0,0.169-0.018,0.288-0.054,0.356s-0.103,0.103-0.2,0.103c-0.091,0-0.186-0.007-0.283-0.02s-0.198-0.02-0.303-0.02
		c-0.378,0-0.762,0.083-1.152,0.249s-0.744,0.42-1.06,0.762s-0.574,0.774-0.776,1.299s-0.303,1.147-0.303,1.87
		c0,0.521,0.101,0.925,0.303,1.211s0.479,0.43,0.83,0.43c0.202,0,0.378-0.061,0.527-0.181s0.28-0.271,0.391-0.454
		s0.2-0.383,0.269-0.601s0.122-0.428,0.161-0.63v-2.256c0-0.188-0.015-0.325-0.044-0.41s-0.044-0.163-0.044-0.234
		c0-0.098,0.052-0.179,0.156-0.244s0.228-0.098,0.371-0.098c0.332,0,0.594,0.086,0.786,0.259s0.288,0.383,0.288,0.63v5.439
		c0.364-0.403,0.698-0.862,1.001-1.377s0.555-1.116,0.757-1.807c0.065-0.208,0.137-0.359,0.215-0.454s0.169-0.142,0.273-0.142
		c0.078,0,0.158,0.024,0.239,0.073s0.156,0.112,0.225,0.19s0.124,0.166,0.166,0.264s0.063,0.195,0.063,0.293
		c0,0.013,0,0.039,0,0.078s-0.007,0.078-0.02,0.117c-0.169,0.579-0.366,1.092-0.591,1.538s-0.464,0.845-0.718,1.196
		s-0.518,0.666-0.791,0.942s-0.547,0.532-0.82,0.767v3.457c0,0.527-0.061,0.972-0.181,1.333s-0.278,0.654-0.474,0.879
		s-0.418,0.386-0.669,0.483s-0.503,0.146-0.757,0.146c-0.28,0-0.537-0.061-0.771-0.181s-0.437-0.285-0.605-0.493
		s-0.301-0.452-0.396-0.732S73.34,83.443,73.34,83.124z M75.254,84.169c0.163,0,0.283-0.065,0.361-0.195s0.132-0.281,0.161-0.454
		s0.044-0.347,0.044-0.522s0-0.312,0-0.41v-2.139c-0.325,0.325-0.588,0.693-0.786,1.104s-0.298,0.915-0.298,1.514
		c0,0.312,0.046,0.574,0.137,0.786S75.091,84.169,75.254,84.169z"/>
	<path fill="#212229" d="M79.18,70.526c0-0.188-0.015-0.325-0.044-0.41s-0.044-0.163-0.044-0.234c0-0.098,0.052-0.178,0.156-0.239
		s0.228-0.093,0.371-0.093c0.332,0,0.594,0.086,0.786,0.259s0.288,0.379,0.288,0.62v0.898c0.137-0.28,0.285-0.54,0.444-0.781
		s0.332-0.451,0.518-0.63s0.384-0.319,0.596-0.42s0.441-0.151,0.688-0.151c0.332,0,0.605,0.062,0.82,0.186s0.384,0.283,0.508,0.479
		s0.21,0.413,0.259,0.654s0.073,0.476,0.073,0.703v4.141c0,0.046,0.003,0.119,0.01,0.22s0.026,0.203,0.059,0.308
		s0.083,0.195,0.151,0.273s0.168,0.117,0.298,0.117c0.202,0,0.376-0.071,0.522-0.215s0.273-0.322,0.381-0.537
		s0.195-0.447,0.264-0.698s0.125-0.486,0.171-0.708c0.039-0.208,0.104-0.359,0.195-0.454s0.186-0.142,0.283-0.142
		c0.078,0,0.159,0.024,0.244,0.073s0.161,0.112,0.229,0.19s0.124,0.166,0.166,0.264s0.063,0.195,0.063,0.293
		c0,0.013,0,0.029,0,0.049s-0.007,0.049-0.02,0.088c-0.085,0.332-0.2,0.681-0.347,1.045s-0.335,0.7-0.566,1.006
		s-0.506,0.56-0.825,0.762s-0.693,0.303-1.123,0.303c-0.267,0-0.503-0.051-0.708-0.151s-0.381-0.236-0.527-0.405
		s-0.257-0.368-0.332-0.596s-0.112-0.469-0.112-0.723v-4.062c0-0.156-0.003-0.303-0.01-0.439s-0.024-0.257-0.054-0.361
		s-0.071-0.188-0.127-0.249s-0.132-0.093-0.229-0.093c-0.144,0-0.319,0.098-0.527,0.293s-0.413,0.449-0.615,0.762
		s-0.379,0.666-0.532,1.06s-0.249,0.789-0.288,1.187v2.92c0,0.098-0.002,0.197-0.005,0.298s-0.022,0.192-0.059,0.273
		s-0.091,0.149-0.166,0.205s-0.184,0.083-0.327,0.083c-0.098,0-0.203-0.012-0.317-0.034s-0.218-0.065-0.312-0.127
		s-0.173-0.149-0.234-0.264s-0.093-0.266-0.093-0.454V70.526z"/>
	<path fill="#212229" d="M90.996,71.366c0,0.371-0.063,0.752-0.19,1.143s-0.315,0.76-0.566,1.108s-0.56,0.661-0.928,0.938
		s-0.793,0.486-1.274,0.63c0.065,0.169,0.151,0.33,0.259,0.483s0.236,0.285,0.386,0.396s0.324,0.198,0.522,0.264
		s0.428,0.098,0.688,0.098c0.391,0,0.726-0.073,1.006-0.22s0.516-0.34,0.708-0.581s0.347-0.511,0.464-0.811s0.205-0.603,0.264-0.908
		c0.046-0.222,0.139-0.369,0.278-0.444s0.283-0.093,0.43-0.054s0.273,0.122,0.381,0.249s0.151,0.278,0.132,0.454
		c-0.026,0.202-0.07,0.433-0.132,0.693s-0.154,0.524-0.278,0.791s-0.281,0.529-0.474,0.786s-0.428,0.486-0.708,0.688
		s-0.608,0.364-0.986,0.488s-0.811,0.186-1.299,0.186c-0.456,0-0.896-0.09-1.323-0.269s-0.804-0.437-1.133-0.771
		s-0.593-0.749-0.791-1.24s-0.298-1.05-0.298-1.675c0-0.632,0.088-1.219,0.264-1.763s0.407-1.014,0.693-1.411
		s0.612-0.708,0.977-0.933s0.739-0.337,1.123-0.337c0.28,0,0.532,0.049,0.757,0.146s0.415,0.236,0.571,0.415s0.275,0.393,0.356,0.64
		S90.996,71.066,90.996,71.366z M87.773,73.729c0,0.059,0.003,0.117,0.01,0.176s0.01,0.12,0.01,0.186
		c0.247-0.117,0.472-0.267,0.674-0.449s0.374-0.391,0.518-0.625s0.254-0.49,0.332-0.767s0.117-0.564,0.117-0.864
		c0-0.222-0.037-0.394-0.112-0.518s-0.178-0.186-0.308-0.186c-0.163,0-0.308,0.056-0.435,0.166s-0.237,0.256-0.332,0.435
		s-0.173,0.381-0.234,0.605s-0.112,0.451-0.151,0.679s-0.065,0.444-0.078,0.649S87.767,73.593,87.773,73.729z"/>
	<path fill="#212229" d="M96.689,77.743c-0.234,0-0.474-0.036-0.718-0.107s-0.466-0.195-0.664-0.371s-0.361-0.408-0.488-0.698
		s-0.19-0.656-0.19-1.099c0-0.645,0.086-1.326,0.259-2.046s0.422-1.512,0.747-2.378h-1.523h-0.225
		c-0.007,0.195-0.018,0.442-0.034,0.742s-0.044,0.618-0.083,0.957s-0.09,0.681-0.151,1.025s-0.139,0.664-0.229,0.957
		c-0.065,0.208-0.168,0.329-0.308,0.361s-0.278,0.008-0.415-0.073s-0.247-0.2-0.332-0.356s-0.104-0.319-0.059-0.488
		c0.052-0.202,0.098-0.447,0.137-0.737s0.07-0.596,0.093-0.918s0.041-0.645,0.054-0.967s0.022-0.61,0.029-0.864
		c-0.247-0.137-0.452-0.311-0.615-0.522s-0.244-0.464-0.244-0.757c0-0.137,0.027-0.262,0.083-0.376s0.129-0.212,0.22-0.293
		s0.198-0.144,0.322-0.186s0.251-0.063,0.381-0.063c0.117,0,0.239,0.017,0.366,0.049s0.247,0.091,0.361,0.176
		s0.217,0.195,0.308,0.332s0.166,0.306,0.225,0.508c0.163,0.02,0.301,0.034,0.415,0.044s0.21,0.018,0.288,0.024
		s0.144,0.01,0.195,0.01s0.104,0,0.156,0h1.045c0.059,0,0.145,0.036,0.259,0.107s0.227,0.164,0.337,0.278s0.203,0.236,0.278,0.366
		s0.103,0.254,0.083,0.371c0,0.039-0.022,0.134-0.068,0.283s-0.101,0.339-0.166,0.566s-0.137,0.49-0.215,0.786
		s-0.149,0.607-0.215,0.933s-0.12,0.662-0.166,1.011s-0.068,0.688-0.068,1.021c0,0.137,0.017,0.271,0.049,0.4
		s0.081,0.246,0.146,0.347s0.148,0.181,0.249,0.239s0.22,0.088,0.356,0.088c0.228,0,0.423-0.071,0.586-0.215s0.3-0.322,0.41-0.537
		s0.2-0.447,0.269-0.698s0.125-0.486,0.171-0.708c0.039-0.208,0.104-0.359,0.195-0.454s0.186-0.142,0.283-0.142
		c0.078,0,0.159,0.024,0.244,0.073s0.161,0.112,0.229,0.19s0.124,0.166,0.166,0.264s0.063,0.195,0.063,0.293
		c0,0.032-0.003,0.059-0.01,0.078s-0.01,0.039-0.01,0.059c-0.091,0.332-0.21,0.681-0.356,1.045s-0.334,0.7-0.562,1.006
		s-0.501,0.56-0.82,0.762S97.119,77.743,96.689,77.743z"/>
</g>
<rect x="1" y="71" fill="#212229" width="20" height="1"/>
<rect x="1" y="74" fill="#212229" width="20" height="1"/>
<rect x="104" y="71" fill="#212229" width="20" height="1"/>
<rect x="104" y="74" fill="#212229" width="20" height="1"/>
<g>
</g>
<g>
</g>
<g>
</g>
<g>
</g>
<g>
</g>
<g>
</g>
<g>
</g>
<g>
</g>
<g>
</g>
<g>
</g>
<g>
</g>
<g>
</g>
<g>
</g>
<g>
</g>
<g>
</g>
</svg>
